<svg width="13" height="12" viewBox="0 0 13 12" fill="none" xmlns="http://www.w3.org/2000/svg">
<path d="M3.50057 1.26393e-06C4.12054 -0.000621812 4.71863 0.229142 5.17873 0.644688C5.63883 1.06023 5.92811 1.63192 5.99042 2.24875C6.05273 2.86559 5.88361 3.48358 5.51591 3.98274C5.1482 4.4819 4.60814 4.82663 4.00057 4.95V6.5C4.00047 7.13472 4.2418 7.74571 4.6756 8.20905C5.10941 8.67238 5.70321 8.95336 6.33657 8.995L6.50057 9H8.05057C8.17447 8.39298 8.51936 7.85359 9.01836 7.4864C9.51736 7.11922 10.1349 6.95039 10.7513 7.01266C11.3677 7.07493 11.9391 7.36386 12.3545 7.82343C12.77 8.28299 13.0001 8.88046 13.0001 9.5C13.0001 10.1195 12.77 10.717 12.3545 11.1766C11.9391 11.6361 11.3677 11.9251 10.7513 11.9873C10.1349 12.0496 9.51736 11.8808 9.01836 11.5136C8.51936 11.1464 8.17447 10.607 8.05057 10H6.50057C5.6055 10.0001 4.74442 9.65722 4.09436 9.04194C3.4443 8.42667 3.05467 7.58572 3.00557 6.692L3.00057 6.5V4.95C2.39299 4.82663 1.85293 4.4819 1.48522 3.98274C1.11752 3.48358 0.948403 2.86559 1.01071 2.24875C1.07302 1.63192 1.3623 1.06023 1.8224 0.644688C2.2825 0.229142 2.88059 -0.000621812 3.50057 1.26393e-06ZM10.5006 8C10.1027 8 9.72121 8.15804 9.43991 8.43934C9.1586 8.72065 9.00057 9.10218 9.00057 9.5C9.00057 9.89783 9.1586 10.2794 9.43991 10.5607C9.72121 10.842 10.1027 11 10.5006 11C10.8984 11 11.2799 10.842 11.5612 10.5607C11.8425 10.2794 12.0006 9.89783 12.0006 9.5C12.0006 9.10218 11.8425 8.72065 11.5612 8.43934C11.2799 8.15804 10.8984 8 10.5006 8ZM3.50057 1C3.10274 1 2.72121 1.15804 2.4399 1.43934C2.1586 1.72065 2.00057 2.10218 2.00057 2.5C2.00057 2.89783 2.1586 3.27936 2.4399 3.56066C2.72121 3.84197 3.10274 4 3.50057 4C3.89839 4 4.27992 3.84197 4.56123 3.56066C4.84253 3.27936 5.00057 2.89783 5.00057 2.5C5.00057 2.10218 4.84253 1.72065 4.56123 1.43934C4.27992 1.15804 3.89839 1 3.50057 1Z" fill="#0078D4"/>
</svg>
