<svg width="48" height="48" viewBox="0 0 48 48" fill="none" xmlns="http://www.w3.org/2000/svg">
<circle cx="24" cy="24" r="16" fill="#515255"/>
<circle opacity="0.8" cx="24" cy="24" r="20" fill="#515255"/>
<circle opacity="0.5" cx="24" cy="24" r="24" fill="#515255"/>
<path fill-rule="evenodd" clip-rule="evenodd" d="M21.1917 21.2537H26.5111V20C26.5111 18.5163 25.3203 17.3134 23.8514 17.3134C22.3824 17.3134 21.1917 18.5162 21.1917 20V21.2537ZM19.8913 21.2537H19.3003C18.5822 21.2537 18 21.8418 18 22.5672V30.6866C18 31.412 18.5822 32 19.3003 32H28.4024C29.1206 32 29.7027 31.412 29.7027 30.6866V22.5672C29.7027 21.8418 29.1206 21.2537 28.4024 21.2537H27.8114V20C27.8114 17.7909 26.0384 16 23.8514 16C21.6643 16 19.8913 17.7909 19.8913 20V21.2537Z" fill="white"/>
</svg>
