<svg width="33" height="40" viewBox="0 0 33 40" fill="none" xmlns="http://www.w3.org/2000/svg">
<g clip-path="url(#clip0)">
<path d="M4.19024 0.000141854C1.88033 0.000141854 0 1.85526 0 4.13248V35.8677C0 38.1449 1.88033 40 4.19024 40H28.8045C31.1144 40 32.9948 38.145 32.9948 35.8677V9.77251C32.9948 9.77251 33.0607 9.00839 32.7242 8.26483C32.4088 7.56784 31.8948 7.08273 31.8948 7.08273C31.8935 7.08101 31.8923 7.07931 31.891 7.0776L25.7841 1.1721C25.7807 1.16873 25.7773 1.16539 25.7739 1.1621C25.7739 1.1621 25.2525 0.672625 24.4796 0.345644C23.5696 -0.0393607 22.6316 0.00128158 22.6316 0.00128158L22.6455 0L4.19024 0.000141854Z" fill="#FF2116"/>
<path d="M4.18863 1.35742H22.644C22.6486 1.35747 22.6533 1.35747 22.6579 1.35742C22.6579 1.35742 23.3959 1.36447 23.9357 1.59284C24.4552 1.81264 24.8236 2.14535 24.8261 2.14758C24.8261 2.14759 24.8286 2.15014 24.8286 2.15014L30.9203 8.04186C30.9203 8.04186 31.2873 8.42387 31.4652 8.817C31.6088 9.13431 31.6176 9.71485 31.6176 9.71485C31.617 9.72443 31.6165 9.73402 31.6163 9.74363V35.8676C31.6163 37.4165 30.374 38.6425 28.8029 38.6425H4.18863C2.61752 38.6425 1.37524 37.4166 1.37524 35.8676V4.1324C1.37524 2.58339 2.61752 1.35747 4.18863 1.35747V1.35742Z" fill="#F5F5F5"/>
<path d="M8.23884 23.8155C7.29153 22.8816 8.31645 21.5982 11.098 20.2354L12.8481 19.3779L13.5299 17.9072C13.905 17.0982 14.4646 15.7784 14.7737 14.9741L15.3356 13.5118L14.9484 12.4296C14.4723 11.0989 14.3025 9.09924 14.6046 8.3802C15.0138 7.40625 16.3541 7.50618 16.8848 8.5502C17.2992 9.36557 17.2568 10.8422 16.7656 12.7044L16.3628 14.2311L16.7176 14.8249C16.9127 15.1514 17.4826 15.9268 17.9841 16.5479L18.9265 17.7037L20.0993 17.5528C23.825 17.0735 25.1011 17.8881 25.1011 19.0561C25.1011 20.5302 22.1756 20.6519 19.719 18.9508C19.1662 18.5681 18.7866 18.1879 18.7866 18.1879C18.7866 18.1879 17.2476 18.4968 16.4899 18.6981C15.7078 18.9059 15.3175 19.0361 14.1718 19.4174C14.1718 19.4174 13.7698 19.9929 13.5079 20.4113C12.5333 21.9679 11.3954 23.258 10.5828 23.7275C9.67294 24.2532 8.7191 24.289 8.23884 23.8155ZM9.7255 23.2919C10.258 22.9675 11.3358 21.7107 12.0819 20.5443L12.3839 20.072L11.0085 20.7538C8.88424 21.8068 7.91241 22.7993 8.41776 23.3996C8.70164 23.7368 9.04124 23.7088 9.7255 23.2919ZM23.524 19.4734C24.0449 19.1138 23.9693 18.389 23.3804 18.0968C22.9222 17.8694 22.5528 17.8226 21.3624 17.84C20.6308 17.8891 19.4545 18.0345 19.2551 18.0787C19.2551 18.0787 19.9014 18.519 20.1883 18.6809C20.5702 18.8959 21.4983 19.2951 22.176 19.4996C22.8444 19.7013 23.2311 19.6801 23.524 19.4734V19.4734ZM17.9758 17.2C17.6606 16.8733 17.1246 16.1915 16.7847 15.6848C16.3402 15.1101 16.1173 14.7046 16.1173 14.7046C16.1173 14.7046 15.7924 15.7349 15.5259 16.3549L14.6943 18.3814L14.4532 18.841C14.4532 18.841 15.735 18.4267 16.3871 18.2587C17.0779 18.0809 18.4798 17.8091 18.4798 17.8091L17.9758 17.2ZM16.1878 10.1309C16.2682 9.46576 16.3024 8.80157 16.0856 8.46663C15.4843 7.81858 14.7586 8.359 14.8815 9.89969C14.9229 10.418 15.0535 11.304 15.2281 11.8501L15.5455 12.843L15.769 12.0952C15.8919 11.6839 16.0804 10.8 16.1878 10.1309Z" fill="#FF2116"/>
<path d="M9.84863 28.1406H11.3866C11.8781 28.1406 12.277 28.187 12.5834 28.2797C12.8897 28.3694 13.1476 28.5713 13.3569 28.8853C13.5662 29.1963 13.6709 29.5717 13.6709 30.0113C13.6709 30.415 13.5859 30.762 13.4161 31.0521C13.2462 31.3422 13.0171 31.5515 12.729 31.6801C12.4438 31.8087 12.004 31.873 11.4094 31.873H10.877V34.2641H9.84863V28.1406ZM10.877 28.9257V31.0611H11.3866C11.8417 31.0611 12.1556 30.9773 12.3285 30.8098C12.5045 30.6423 12.5925 30.3702 12.5925 29.9934C12.5925 29.7122 12.5348 29.4849 12.4195 29.3115C12.3043 29.135 12.1769 29.0274 12.0373 28.9885C11.9008 28.9466 11.6839 28.9257 11.3866 28.9257L10.877 28.9257Z" fill="#2C2C2C"/>
<path d="M14.458 28.1406H15.8549C16.5314 28.1406 17.0714 28.2588 17.4748 28.495C17.8813 28.7313 18.1877 29.0827 18.394 29.5492C18.6033 30.0158 18.708 30.5332 18.708 31.1014C18.708 31.6996 18.6139 32.2334 18.4259 32.7029C18.2408 33.1695 17.9557 33.5463 17.5704 33.8334C17.1882 34.1205 16.6421 34.2641 15.9323 34.2641H14.458V28.1406ZM15.4864 28.9526V33.4521H15.9141C16.5117 33.4521 16.9455 33.2487 17.2155 32.842C17.4855 32.4323 17.6205 31.8865 17.6205 31.2046C17.6205 29.7033 17.0517 28.9526 15.9141 28.9526H15.4864Z" fill="#2C2C2C"/>
<path d="M19.6963 28.1406H23.1454V28.9526H20.7247V30.7829H22.6631V31.5949H20.7247V34.2641H19.6963V28.1406Z" fill="#2C2C2C"/>
</g>
<defs>
<clipPath id="clip0">
<rect width="33" height="40" fill="white"/>
</clipPath>
</defs>
</svg>
