<svg width="16" height="16" viewBox="0 0 16 16" fill="none" xmlns="http://www.w3.org/2000/svg">
<g clip-path="url(#clip0)">
<path d="M15.437 9.26202C15.9143 5.24402 15.2076 2.70735 13.933 1.56002L13.9336 1.55935C11.8763 -0.399984 4.9283 -0.689984 2.46696 1.64735C1.36163 2.79068 0.972297 4.46868 0.92963 6.54602C0.886964 8.62402 0.836297 12.5167 4.46363 13.5727H4.46696L4.46363 15.1854C4.46363 15.1854 4.43896 15.8387 4.8563 15.97C5.33363 16.1247 5.54963 15.8214 7.0343 14.048C9.51696 14.2634 11.4236 13.77 11.6403 13.698C12.1416 13.53 14.9783 13.1547 15.437 9.26202ZM7.27896 12.9134C7.27896 12.9134 5.70763 14.8727 5.21896 15.3814C5.05896 15.5467 4.88363 15.5314 4.8863 15.2034C4.8863 14.988 4.8983 12.526 4.8983 12.526C1.82296 11.6447 2.0043 8.33002 2.03763 6.59602C2.07096 4.86135 2.3883 3.44068 3.3243 2.48402C5.48363 0.45935 11.575 0.912016 13.127 2.37068C15.0243 4.05268 14.349 8.80468 14.353 8.96668C13.963 12.216 11.6643 12.422 11.2416 12.5627C11.061 12.6227 9.3843 13.054 7.27896 12.9134Z" fill="white"/>
<path d="M8.14782 2.86426C7.89116 2.86426 7.89116 3.26426 8.14782 3.26759C10.1392 3.28292 11.7792 4.67092 11.7972 7.21692C11.7972 7.48559 12.1905 7.48226 12.1872 7.21359H12.1865C12.1652 4.47026 10.3745 2.87959 8.14782 2.86426Z" fill="white"/>
<path d="M10.7675 6.79536C10.7615 7.06069 11.1541 7.07336 11.1575 6.80469C11.1901 5.29202 10.2575 4.04602 8.50479 3.91469C8.24812 3.89602 8.22145 4.29936 8.47746 4.31802C9.99746 4.43336 10.7981 5.47069 10.7675 6.79536Z" fill="white"/>
<path d="M10.348 8.5164C10.0187 8.32573 9.68337 8.4444 9.5447 8.63173L9.2547 9.00706C9.10737 9.19773 8.83204 9.1724 8.83204 9.1724C6.82271 8.64106 6.28537 6.5384 6.28537 6.5384C6.28537 6.5384 6.26071 6.25373 6.44471 6.10106L6.80737 5.80106C6.98871 5.65706 7.10337 5.31039 6.91871 4.96973C6.42537 4.07839 6.09404 3.77106 5.92538 3.53506C5.74804 3.31306 5.48138 3.26306 5.20404 3.41306H5.19804C4.62138 3.75039 3.99005 4.38173 4.19205 5.03173C4.53671 5.71706 5.17004 7.90173 7.18871 9.5524C8.13737 10.3331 9.6387 11.1331 10.276 11.3177L10.282 11.3271C10.91 11.5364 11.5207 10.8804 11.8467 10.2864V10.2817C11.9914 9.9944 11.9434 9.7224 11.732 9.5444C11.3574 9.17906 10.792 8.77573 10.348 8.5164Z" fill="white"/>
<path d="M8.7794 5.40278C9.42007 5.44012 9.73074 5.77479 9.76408 6.46212C9.77608 6.73079 10.1661 6.71212 10.1541 6.44346C10.1114 5.54612 9.64341 5.04612 8.80073 4.99945C8.54406 4.98412 8.52006 5.38745 8.7794 5.40278Z" fill="white"/>
</g>
<defs>
<clipPath id="clip0">
<rect width="16" height="16" fill="white"/>
</clipPath>
</defs>
</svg>
