<?xml version="1.0" encoding="UTF-8" standalone="no"?>
<!-- Generator: Adobe Illustrator 21.0.0, SVG Export Plug-In . SVG Version: 6.00 Build 0)  -->

<svg
   xmlns:dc="http://purl.org/dc/elements/1.1/"
   xmlns:cc="http://creativecommons.org/ns#"
   xmlns:rdf="http://www.w3.org/1999/02/22-rdf-syntax-ns#"
   xmlns:svg="http://www.w3.org/2000/svg"
   xmlns="http://www.w3.org/2000/svg"
   xmlns:sodipodi="http://sodipodi.sourceforge.net/DTD/sodipodi-0.dtd"
   xmlns:inkscape="http://www.inkscape.org/namespaces/inkscape"
   version="1.1"
   id="Layer_3"
   x="0px"
   y="0px"
   viewBox="0 0 130 36"
   style="enable-background:new 0 0 130 36;"
   xml:space="preserve"
   sodipodi:docname="platform_logo_white.svg"
   inkscape:version="0.92.4 (5da689c313, 2019-01-14)"><metadata
   id="metadata3763"><rdf:RDF><cc:Work
       rdf:about=""><dc:format>image/svg+xml</dc:format><dc:type
         rdf:resource="http://purl.org/dc/dcmitype/StillImage" /><dc:title></dc:title></cc:Work></rdf:RDF></metadata><defs
   id="defs3761" /><sodipodi:namedview
   pagecolor="#ffffff"
   bordercolor="#666666"
   borderopacity="1"
   objecttolerance="10"
   gridtolerance="10"
   guidetolerance="10"
   inkscape:pageopacity="0"
   inkscape:pageshadow="2"
   inkscape:window-width="1680"
   inkscape:window-height="987"
   id="namedview3759"
   showgrid="false"
   inkscape:pagecheckerboard="true"
   inkscape:zoom="3.3942308"
   inkscape:cx="0.37883675"
   inkscape:cy="27.555526"
   inkscape:window-x="-8"
   inkscape:window-y="-8"
   inkscape:window-maximized="1"
   inkscape:current-layer="g3748" />
<style
   type="text/css"
   id="style3739">
	.st0{fill:#FFFFFF;}
</style>
<g
   id="g3748">
	<path
   class="st0"
   d="M119.6,9.7L113.8,4L108,9.7l5.8,5.7L119.6,9.7z M114,0.2h6l9.7,9.5l-9.7,9.5h-6l9.7-9.5L114,0.2z"
   id="path3741"
   style="fill:#ffffff;fill-opacity:1" />
	<g
   id="g3746"
   style="fill:#ffffff">
		<g
   id="g3744"
   style="fill:#ffffff;fill-opacity:1">
			<path
   id="SVGID_1_"
   class="st0"
   d="M53.2,12.8c-0.8,1.6-2.4,2.6-4.2,2.6c-3.3,0-4.9-2.7-4.9-5.6s1.7-5.6,4.9-5.6     c1.8,0,3.5,1,4.2,2.6l4.4-1.9C56.1,1.9,53.1,0,49,0c-6.2,0-9.7,4.2-9.7,9.8s3.6,9.8,9.7,9.8c4.1,0,7.1-1.9,8.6-4.8L53.2,12.8z      M28.4,4.1c3.3,0,4.9,2.7,4.9,5.6s-1.7,5.6-4.9,5.6s-4.9-2.7-4.9-5.6S25.1,4.1,28.4,4.1z M28.4,0c-6.2,0-9.7,4.2-9.7,9.8     s3.6,9.8,9.7,9.8s9.7-4.2,9.7-9.8S34.5,0,28.4,0z M4.7,11.2h6c1.8,0,2.4,0.7,2.4,2.3c0,1.2-0.7,2.2-3.3,2.2H4.7V11.2z M4.6,3.8     h5.3c1.6,0,2.5,0.4,2.5,2c0,1.4-1,2-2.5,2H4.6V3.8z M0,19.2h10.1c4.9,0,7.9-1.5,7.9-5.4c0-2.8-2.1-4.2-4.8-4.3V9.4     c2.6-0.6,4.1-1.9,4.1-4.3c0-3.6-2.6-4.9-6.6-4.9H0V19.2z M82.9,4.1c3.3,0,4.9,2.7,4.9,5.6s-1.6,5.6-4.9,5.6S78,12.6,78,9.7     S79.7,4.1,82.9,4.1z M82.9,0c-6.2,0-9.7,4.2-9.7,9.8s3.6,9.8,9.7,9.8c6.2,0,9.7-4.2,9.7-9.8S89.1,0,82.9,0z M58.2,3.9h5.1v15.3     h4.9V3.9h5.1V0.2h-15L58.2,3.9L58.2,3.9z M103.8,9.8l9.7,9.5h-6l-8.8-8.6v8.6h-4.8v-19h4.9v8.6l8.8-8.6h6L103.8,9.8z"
   style="fill:#ffffff;fill-opacity:1" />
		</g>
	</g>
<text
   xml:space="preserve"
   style="font-style:normal;font-variant:normal;font-weight:normal;font-stretch:normal;font-size:12px;line-height:1.25;font-family:'Graphik LC Web';-inkscape-font-specification:'Graphik LC Web';letter-spacing:0px;word-spacing:0px;fill:#ffffff;fill-opacity:1;stroke:none;"
   x="35.832088"
   y="31.729315"
   id="text823"><tspan
     sodipodi:role="line"
     id="tspan821"
     x="35.832088"
     y="31.729315">ПЛАТФОРМА</tspan></text>


</g>




</svg>