<svg width="82" height="20" viewBox="0 0 82 20" fill="none" xmlns="http://www.w3.org/2000/svg">
<path d="M75.44 6.19737L71.7815 2.55571L68.123 6.19737L71.7815 9.83904L75.44 6.19737ZM71.9077 0.12793H75.6923L81.8107 6.19737L75.6923 12.2668H71.9077L78.0261 6.19737L71.9077 0.12793Z" fill="#F47C20"/>
<path d="M33.5569 8.17778C33.0523 9.2 32.0431 9.83889 30.9077 9.83889C28.8262 9.83889 27.8169 8.11389 27.8169 6.26111C27.8169 4.40833 28.8892 2.68333 30.9077 2.68333C32.0431 2.68333 33.1154 3.32222 33.5569 4.34444L36.3323 3.13056C35.3862 1.21389 33.4938 0 30.9077 0C26.9969 0 24.7892 2.68333 24.7892 6.26111C24.7892 9.83889 27.06 12.5222 30.9077 12.5222C33.4938 12.5222 35.3862 11.3083 36.3323 9.45556L33.5569 8.17778ZM17.9138 2.61944C19.9954 2.61944 21.0046 4.34444 21.0046 6.19722C21.0046 8.05 19.9323 9.775 17.9138 9.775C15.8954 9.775 14.8231 8.05 14.8231 6.19722C14.8231 4.34444 15.8323 2.61944 17.9138 2.61944ZM17.9138 0C14.0031 0 11.7954 2.68333 11.7954 6.26111C11.7954 9.83889 14.0662 12.5222 17.9138 12.5222C21.7615 12.5222 24.0323 9.83889 24.0323 6.26111C24.0323 2.68333 21.7615 0 17.9138 0ZM2.96462 7.15556H6.74923C7.88461 7.15556 8.26308 7.60278 8.26308 8.625C8.26308 9.39167 7.82154 10.0306 6.18154 10.0306H2.96462V7.15556ZM2.90154 2.42778H6.24461C7.25385 2.42778 7.82154 2.68333 7.82154 3.70556C7.82154 4.6 7.19077 4.98333 6.24461 4.98333H2.90154V2.42778ZM0 12.2667H6.37077C9.46154 12.2667 11.3538 11.3083 11.3538 8.81667C11.3538 7.02778 10.0292 6.13333 8.32615 6.06944V6.00556C9.96615 5.62222 10.9123 4.79167 10.9123 3.25833C10.9123 0.958333 9.27231 0.127778 6.74923 0.127778H0V12.2667ZM52.2908 2.61944C54.3723 2.61944 55.3815 4.34444 55.3815 6.19722C55.3815 8.05 54.3723 9.775 52.2908 9.775C50.2092 9.775 49.2 8.05 49.2 6.19722C49.2 4.34444 50.2723 2.61944 52.2908 2.61944ZM52.2908 0C48.38 0 46.1723 2.68333 46.1723 6.26111C46.1723 9.83889 48.4431 12.5222 52.2908 12.5222C56.2015 12.5222 58.4092 9.83889 58.4092 6.26111C58.4092 2.68333 56.2015 0 52.2908 0ZM36.7108 2.49167H39.9277V12.2667H43.0185V2.49167H46.2354V0.127778H36.7738L36.7108 2.49167ZM65.4738 6.26111L71.5923 12.3306H67.8077L62.2569 6.83611V12.3306H59.2292V0.191667H62.32V5.68611L67.8708 0.191667H71.6554L65.4738 6.26111Z" fill="#F47C20"/>
<path d="M27.3364 19.6322H26.623V14.7731H23.9694V19.6322H23.2598V14.1816H27.3364V19.6322Z" fill="#F47C20"/>
<path d="M32.6991 14.1816V19.6322H31.9895V14.7731H30.0602L29.9642 16.9331C29.9272 17.6568 29.8533 18.2009 29.7424 18.5653C29.634 18.9296 29.4738 19.1979 29.2619 19.3701C29.05 19.5398 28.7667 19.6272 28.4119 19.6322H28.179V19.0444L28.3269 19.0369C28.556 19.0195 28.7322 18.9446 28.8554 18.8123C28.9786 18.6776 29.0722 18.4642 29.1363 18.1722C29.2003 17.8802 29.2459 17.431 29.273 16.8245L29.3839 14.1816H32.6991Z" fill="#F47C20"/>
<path d="M37.027 18.2096H34.7725L34.2662 19.6322H33.5344L35.5893 14.1816H36.2102L38.2689 19.6322H37.5408L37.027 18.2096ZM34.9869 17.6182H36.8164L35.8998 15.0688L34.9869 17.6182Z" fill="#F47C20"/>
<path d="M42.2309 14.7731H40.5012V19.6322H39.7953V14.7731H38.0693V14.1816H42.2309V14.7731Z" fill="#F47C20"/>
<path d="M45.6866 14.7282H45.8011C46.2077 14.7307 46.5785 14.8268 46.9136 15.0164C47.2487 15.2061 47.5086 15.4682 47.6934 15.8026C47.8807 16.1345 47.9743 16.5063 47.9743 16.9181C47.9743 17.3324 47.8807 17.708 47.6934 18.0449C47.5062 18.3818 47.2475 18.6451 46.9173 18.8348C46.5871 19.022 46.22 19.1181 45.8159 19.123H45.6866V19.8568H44.9991V19.123H44.8956C44.4842 19.123 44.1096 19.0282 43.7721 18.8385C43.437 18.6489 43.1758 18.3868 42.9885 18.0524C42.8038 17.718 42.7114 17.3424 42.7114 16.9256C42.7114 16.5088 42.8038 16.1332 42.9885 15.7988C43.1758 15.4644 43.437 15.2024 43.7721 15.0127C44.1096 14.823 44.4842 14.7282 44.8956 14.7282H44.9991V13.957H45.6866V14.7282ZM44.8956 15.2935C44.4324 15.2935 44.0653 15.4382 43.7943 15.7277C43.5257 16.0147 43.3914 16.414 43.3914 16.9256C43.3914 17.4397 43.5257 17.8403 43.7943 18.1273C44.0628 18.4118 44.4324 18.554 44.903 18.554H44.9991V15.2935H44.8956ZM45.6866 15.2935V18.554H45.7901C46.2607 18.554 46.6278 18.408 46.8914 18.116C47.1575 17.8216 47.2906 17.4223 47.2906 16.9181C47.2906 16.419 47.1575 16.0234 46.8914 15.7314C46.6278 15.4395 46.2557 15.2935 45.7753 15.2935H45.6866Z" fill="#F47C20"/>
<path d="M53.0082 17.0828C53.0082 17.6169 52.9195 18.0836 52.7421 18.4829C52.5647 18.8797 52.3133 19.1829 51.9881 19.3926C51.6629 19.6022 51.2834 19.707 50.8498 19.707C50.426 19.707 50.0502 19.6022 49.7225 19.3926C49.3948 19.1804 49.1398 18.8797 48.9574 18.4904C48.7776 18.0986 48.6852 17.6456 48.6803 17.1315V16.7384C48.6803 16.2144 48.7702 15.7514 48.9501 15.3496C49.1299 14.9478 49.3837 14.6408 49.7114 14.4287C50.0416 14.2141 50.4186 14.1068 50.8424 14.1068C51.2736 14.1068 51.653 14.2128 51.9807 14.425C52.3109 14.6346 52.5647 14.9403 52.7421 15.3421C52.9195 15.7414 53.0082 16.2069 53.0082 16.7384V17.0828ZM52.3022 16.731C52.3022 16.0846 52.1741 15.5892 51.9179 15.2448C51.6616 14.8979 51.3031 14.7244 50.8424 14.7244C50.3939 14.7244 50.0403 14.8979 49.7816 15.2448C49.5254 15.5892 49.3936 16.0684 49.3862 16.6823V17.0828C49.3862 17.7093 49.5155 18.2021 49.7742 18.5615C50.0354 18.9184 50.3939 19.0968 50.8498 19.0968C51.308 19.0968 51.6629 18.9284 51.9142 18.5915C52.1655 18.2521 52.2949 17.7667 52.3022 17.1353V16.731Z" fill="#F47C20"/>
<path d="M54.7822 17.4984V19.6322H54.0726V14.1816H56.0573C56.6462 14.1816 57.1069 14.3339 57.4396 14.6383C57.7747 14.9428 57.9422 15.3459 57.9422 15.8475C57.9422 16.3766 57.7784 16.7846 57.4507 17.0716C57.1254 17.3561 56.6585 17.4984 56.0499 17.4984H54.7822ZM54.7822 16.9106H56.0573C56.4367 16.9106 56.7275 16.8208 56.9295 16.6411C57.1316 16.4589 57.2326 16.1969 57.2326 15.855C57.2326 15.5305 57.1316 15.271 56.9295 15.0763C56.7275 14.8817 56.4503 14.7806 56.0979 14.7731H54.7822V16.9106Z" fill="#F47C20"/>
<path d="M59.7643 14.1816L61.5236 18.6289L63.2828 14.1816H64.2031V19.6322H63.4935V17.5096L63.56 15.2186L61.7934 19.6322H61.2501L59.4871 15.2298L59.5573 17.5096V19.6322H58.8477V14.1816H59.7643Z" fill="#F47C20"/>
<path d="M68.494 18.2096H66.2395L65.7332 19.6322H65.0014L67.0563 14.1816H67.6772L69.7359 19.6322H69.0078L68.494 18.2096ZM66.4539 17.6182H68.2834L67.3668 15.0688L66.4539 17.6182Z" fill="#F47C20"/>
</svg>
